<?xml version="1.0" encoding="iso-8859-1"?>
<!-- Generator: Adobe Illustrator 19.0.0, SVG Export Plug-In . SVG Version: 6.00 Build 0)  -->
<svg version="1.1" id="Capa_1" xmlns="http://www.w3.org/2000/svg" xmlns:xlink="http://www.w3.org/1999/xlink" x="0px" y="0px"
	 viewBox="0 0 511.83 511.83" style="enable-background:new 0 0 511.83 511.83;" xml:space="preserve">
<g>
	<g>
		<g>
			<path d="M372.523,473.508l0-347.349c-0.674-14.463-8.337-27.696-20.546-35.48L200.28,3.073
				c-4.666-2.944-10.345-3.821-15.682-2.422c-0.649,0.098-1.281,0.29-1.875,0.571c-0.064,0.029-0.137,0.031-0.2,0.061l-0.016,0.012
				c-0.192,0.088-0.403,0.09-0.589,0.199l-33.664,19.428c-0.121,0.07-0.187,0.19-0.302,0.266c-0.083,0.046-0.181,0.055-0.264,0.102
				c-5.64,3.691-8.842,10.145-8.368,16.868v347.342c0.706,14.478,8.38,27.717,20.592,35.526l151.632,87.546
				c3.363,2.042,7.204,3.165,11.138,3.257c1.822-0.029,3.624-0.373,5.328-1.018c0.626-0.137,1.229-0.363,1.79-0.673l0.339-0.195
				c0.115-0.062,0.245-0.081,0.359-0.146c0.101-0.058,0.17-0.156,0.269-0.217l31.704-18.323l1.191-0.691
				c0.161-0.1,0.241-0.259,0.389-0.369C369.683,486.574,372.923,480.193,372.523,473.508z M152.793,38.159
				c0-3.145,0.882-4.763,1.632-5.197c0.352-0.177,0.744-0.261,1.138-0.243c1.55,0.112,3.046,0.615,4.349,1.461l151.632,87.546
				c8.042,5.401,13.151,14.201,13.855,23.862v24.481L152.793,70.413V38.159z M152.793,85.973l172.605,99.655v246.821
				l-172.605-99.655V85.973z M249.8,432.139c0,3.217-0.914,4.888-1.698,5.342c-0.809,0.474-2.77,0.428-5.638-1.237
				c-8.172-5.488-13.364-14.432-14.079-24.25c0-3.217,0.914-4.888,1.698-5.336c0.368-0.187,0.778-0.275,1.191-0.257
				c1.587,0.112,3.12,0.626,4.454,1.493C243.897,413.382,249.087,422.324,249.8,432.139z M325.398,492.928
				c0,2.979-0.794,4.558-1.521,5.085l-0.291,0.163c-1.87,0.359-3.804-0.105-5.306-1.274l-151.632-87.546
				c-8.044-5.396-13.154-14.195-13.855-23.855v-37.146l77.539,44.768c-2.444,0.059-4.839,0.698-6.987,1.865
				c-5.688,3.719-8.916,10.227-8.435,17.007c0.717,14.637,8.473,28.021,20.816,35.921c3.391,2.059,7.264,3.191,11.23,3.283
				c2.762,0.026,5.481-0.68,7.882-2.046c5.688-3.722,8.916-10.232,8.435-17.013c-0.379-9.219-3.63-18.088-9.3-25.367l71.425,41.238
				V492.928z M359.05,473.507c0,3.026-0.901,4.809-1.796,5.23c-0.211,0.139-0.414,0.29-0.608,0.453
				c-0.182,0.092-0.388,0.103-0.563,0.212l-17.211,9.955V145.586c-0.709-14.479-8.382-27.719-20.592-35.533L169.557,24.187
				l18.43-10.636c0.076-0.032,0.158-0.021,0.234-0.056c1.889-0.345,3.837,0.118,5.368,1.276l151.671,87.592
				c8.026,5.375,13.117,14.159,13.789,23.796V473.507z"/>
			<path d="M248.28,98.376l-29.079-16.789c-2.085-1.205-4.654-1.206-6.74-0.002s-3.37,3.429-3.369,5.837
				c0.001,2.408,1.286,4.633,3.372,5.836l29.079,16.789c3.223,1.858,7.341,0.753,9.201-2.469
				C252.604,104.356,251.501,100.237,248.28,98.376z"/>
			<path d="M271.536,111.803l-5.816-3.362c-3.223-1.858-7.341-0.753-9.201,2.469c-1.86,3.222-0.757,7.341,2.464,9.202l5.816,3.362
				c3.223,1.858,7.341,0.753,9.201-2.469C275.86,117.784,274.757,113.665,271.536,111.803z"/>
			<path d="M226.495,236.382l-5.728,3.263c-3.232,1.844-4.36,5.957-2.52,9.191c1.844,3.231,5.957,4.359,9.191,2.52l5.818-3.315
				l8.275,14.269c1.204,2.091,3.434,3.378,5.847,3.375c2.413-0.003,4.64-1.295,5.839-3.388c1.2-2.093,1.189-4.668-0.028-6.751
				l-8.221-14.177l5.728-3.264c3.234-1.842,4.362-5.957,2.52-9.191c-1.842-3.234-5.957-4.362-9.191-2.52l-5.818,3.315l-8.274-14.269
				c-1.204-2.091-3.434-3.378-5.847-3.375c-2.413,0.003-4.64,1.295-5.839,3.388c-1.2,2.093-1.189,4.668,0.028,6.751L226.495,236.382
				z"/>
			<path d="M291.486,268.225l5.728-3.264c3.226-1.846,4.349-5.955,2.509-9.185c-1.84-3.23-5.947-4.36-9.18-2.526l-5.818,3.314
				l-8.274-14.269c-1.206-2.087-3.435-3.371-5.845-3.368c-2.411,0.004-4.635,1.294-5.835,3.385s-1.191,4.663,0.022,6.746
				l8.221,14.177l-5.728,3.264c-3.232,1.844-4.359,5.957-2.52,9.191c1.844,3.231,5.957,4.359,9.191,2.52l5.818-3.315l8.274,14.269
				c1.204,2.091,3.434,3.378,5.847,3.375c2.413-0.003,4.64-1.295,5.839-3.388c1.2-2.093,1.189-4.668-0.028-6.751L291.486,268.225z"
				/>
			<path d="M171.727,221.981c1.844,3.231,5.957,4.359,9.191,2.52l5.822-3.316l8.277,14.27c1.868,3.219,5.991,4.315,9.211,2.447
				s4.315-5.991,2.447-9.211l-8.223-14.177l5.73-3.264c2.092-1.192,3.389-3.409,3.403-5.816s-1.258-4.639-3.336-5.855
				c-2.078-1.216-4.647-1.231-6.739-0.039l-5.822,3.316l-8.277-14.27c-1.204-2.091-3.434-3.378-5.847-3.375
				c-2.413,0.003-4.64,1.295-5.839,3.388c-1.2,2.093-1.189,4.668,0.028,6.751l8.223,14.177l-5.73,3.264
				C171.014,214.633,169.887,218.747,171.727,221.981z"/>
			<path d="M297.247,313.297l-116.296-67.138c-3.223-1.858-7.341-0.753-9.201,2.469c-1.86,3.222-0.757,7.341,2.464,9.202
				l116.296,67.138c2.085,1.205,4.654,1.206,6.74,0.002s3.37-3.429,3.369-5.837C300.619,316.724,299.333,314.499,297.247,313.297z"
				/>
		</g>
	</g>
</g>
<g>
</g>
<g>
</g>
<g>
</g>
<g>
</g>
<g>
</g>
<g>
</g>
<g>
</g>
<g>
</g>
<g>
</g>
<g>
</g>
<g>
</g>
<g>
</g>
<g>
</g>
<g>
</g>
<g>
</g>
</svg>
